<svg id="Capa_1" enable-background="new 0 0 497 497" height="512" viewBox="0 0 497 497" width="512" xmlns="http://www.w3.org/2000/svg"><g><path d="m445.81 452.625c0 24.508-19.907 44.375-44.464 44.375h-305.692c-24.557 0-44.464-19.867-44.464-44.375v-408.25c0-24.508 19.907-44.375 44.464-44.375h190.303c8.857 0 17.35 3.516 23.606 9.773l126.505 126.521c6.239 6.239 9.742 14.694 9.742 23.508z" fill="#f9f8f9"/><path d="m125.65 497h-30c-24.55 0-44.46-19.87-44.46-44.38v-408.24c0-24.51 19.91-44.38 44.46-44.38h30c-24.55 0-44.46 19.87-44.46 44.38v408.24c0 24.51 19.91 44.38 44.46 44.38z" fill="#e3e0e4"/><path d="m445.81 159.8v16.24h-115.96c-33.12 0-60.06-26.95-60.06-60.07v-115.97h16.17c8.85 0 17.35 3.52 23.6 9.77l126.51 126.52c6.24 6.24 9.74 14.7 9.74 23.51z" fill="#e3e0e4"/><path d="m442.82 146.04h-112.97c-16.6 0-30.06-13.46-30.06-30.07v-112.96c3.61 1.63 6.92 3.91 9.77 6.76l126.51 126.52c2.85 2.85 5.12 6.15 6.75 9.75z" fill="#80e29e"/><path d="m427.5 431h-358c-22.091 0-40-17.909-40-40v-146c0-22.091 17.909-40 40-40h358c22.091 0 40 17.909 40 40v146c0 22.091-17.909 40-40 40z" fill="#80e29e"/><path d="m94.5 431h-25c-22.09 0-40-17.91-40-40v-146c0-22.09 17.91-40 40-40h25c-22.09 0-40 17.91-40 40v146c0 22.09 17.91 40 40 40z" fill="#77d192"/><g fill="#f9f8f9"><path d="m420.122 371.348-42.415-112.392c-.025-.068-.053-.137-.08-.205-1.562-3.796-5.222-6.247-9.326-6.247-.003 0-.006 0-.01 0-4.107.004-7.768 2.463-9.323 6.266-.023.057-.046.113-.067.171l-42.804 112.387c-1.475 3.87.469 8.203 4.34 9.678 3.864 1.476 8.203-.468 9.678-4.34l8.82-23.159h58.422l8.732 23.139c1.133 3.003 3.987 4.854 7.018 4.854.88 0 1.775-.156 2.647-.485 3.875-1.464 5.831-5.791 4.368-9.667zm-75.474-32.842 23.632-62.048 23.416 62.048z"/><path d="m206.652 258.956c-.025-.068-.053-.137-.08-.205-1.562-3.796-5.222-6.247-9.326-6.247-.003 0-.006 0-.01 0-4.107.004-7.768 2.463-9.323 6.266-.023.057-.046.113-.067.171l-42.804 112.387c-1.475 3.87.469 8.203 4.34 9.678 3.866 1.476 8.203-.468 9.678-4.34l8.82-23.159h58.422l8.732 23.139c1.133 3.003 3.987 4.854 7.018 4.854.88 0 1.775-.156 2.647-.485 3.875-1.462 5.831-5.789 4.368-9.665zm-33.059 79.55 23.632-62.048 23.416 62.048z"/><path d="m124.051 252.504c-4.143 0-7.5 3.357-7.5 7.5v91.107c0 5.755-3.015 11.003-7.867 13.696-9.556 5.306-19.036-3.774-19.497-4.225-2.923-2.911-7.649-2.915-10.578-.006-2.938 2.92-2.953 7.669-.034 10.606.545.549 10.505 10.371 23.811 10.371 4.25 0 8.845-1.003 13.579-3.632 9.614-5.337 15.587-15.61 15.587-26.812v-91.107c-.001-4.141-3.359-7.498-7.501-7.498z"/><path d="m325.47 253.096c-3.927-1.309-8.176.821-9.481 4.753l-32.642 98.254-34.211-98.558c-1.358-3.914-5.634-5.99-9.544-4.626-3.913 1.358-5.984 5.631-4.626 9.544l38.992 112.332c1.426 4.016 5.234 6.702 9.491 6.702.022 0 .045 0 .068-.001 4.284-.028 8.089-2.773 9.484-6.88l37.221-112.039c1.307-3.931-.821-8.176-4.752-9.481z"/></g></g></svg>